# This file uses centimeters as units for non-parametric coordinates.

v -100.000000 100.000000 100.000000
v -100.000000 -100.000000 100.000000
v 100.000000 100.000000 100.000000
v 100.000000 -100.000000 100.000000
v 100.000000 100.000000 -100.000000
v 100.000000 -100.000000 -100.000000
v -100.000000 100.000000 -100.000000
v -100.000000 -100.000000 -100.000000
vt 0.333410 0.000000
vt 0.333410 0.250000
vt 0.666590 0.000000
vt 0.666590 0.250000
vt 0.333410 0.500000
vt 0.666590 0.500000
vt 0.333410 0.750000
vt 0.666590 0.750000
vt 0.333410 1.000000
vt 0.666590 1.000000
vt 0.999771 0.000000
vt 0.999771 0.250000
vt 0.000229 0.000000
vt 0.000229 0.250000
vn 0.000000 0.000000 -1.000000
vn 0.000000 0.000000 -1.000000
vn 0.000000 0.000000 -1.000000
vn 0.000000 0.000000 -1.000000
vn 0.000000 0.000000 -1.000000
vn 0.000000 0.000000 -1.000000
vn -1.000000 0.000000 0.000000
vn -1.000000 0.000000 0.000000
vn -1.000000 0.000000 0.000000
vn -1.000000 0.000000 0.000000
vn -1.000000 0.000000 0.000000
vn -1.000000 0.000000 0.000000
vn 0.000000 -0.000000 1.000000
vn 0.000000 -0.000000 1.000000
vn 0.000000 -0.000000 1.000000
vn 0.000000 -0.000000 1.000000
vn 0.000000 -0.000000 1.000000
vn 0.000000 -0.000000 1.000000
vn 1.000000 -0.000000 0.000000
vn 1.000000 -0.000000 0.000000
vn 1.000000 -0.000000 0.000000
vn 1.000000 -0.000000 0.000000
vn 1.000000 -0.000000 0.000000
vn 1.000000 -0.000000 0.000000
vn 0.000000 1.000000 0.000000
vn 0.000000 1.000000 0.000000
vn 0.000000 1.000000 0.000000
vn 0.000000 1.000000 0.000000
vn 0.000000 1.000000 0.000000
vn 0.000000 1.000000 0.000000
vn 0.000000 -1.000000 0.000000
vn 0.000000 -1.000000 0.000000
vn 0.000000 -1.000000 0.000000
vn 0.000000 -1.000000 0.000000
vn 0.000000 -1.000000 0.000000
vn 0.000000 -1.000000 0.000000
s off
f 1/1/1 3/2/2 2/3/3
f 3/2/4 4/4/5 2/3/6
f 3/2/7 5/5/8 4/4/9
f 5/5/10 6/6/11 4/4/12
f 5/5/13 7/7/14 6/6/15
f 7/7/16 8/8/17 6/6/18
f 7/7/19 1/9/20 8/8/21
f 1/9/22 2/10/23 8/8/24
f 2/3/25 4/4/26 8/11/27
f 4/4/28 6/12/29 8/11/30
f 7/13/31 5/14/32 1/1/33
f 5/14/34 3/2/35 1/1/36
