# This file uses centimeters as units for non-parametric coordinates.

mtllib gem.mtl
v 0.707107 1.000000 -0.707107
v 0.000000 2.000000 0.000000
v 1.000000 1.000000 0.000000
v 0.707107 1.000000 0.707107
v 0.000000 1.000000 1.000000
v -0.707107 1.000000 0.707107
v -1.000000 1.000000 0.000000
v -0.707107 1.000000 -0.707107
v 0.000000 1.000000 -1.000000
v 0.000000 0.000000 0.000000
vt 0.250000 0.500000
vt 0.312500 0.500000
vt 0.437500 0.500000
vt 0.500000 0.500000
vt 0.562500 0.500000
vt 0.625000 0.500000
vt 0.687500 0.500000
vt 0.750000 0.500000
vt 0.500000 1.000000
vt 0.500000 0.500000
vt 0.500000 1.000000
vt 0.687500 0.500000
vt 0.750000 0.500000
vt 0.625000 0.500000
vt 0.687500 0.500000
vt 0.562500 0.500000
vt 0.625000 0.500000
vt 0.562500 0.500000
vt 0.437500 0.500000
vt 0.375000 0.500000
vt 0.437500 0.500000
vt 0.312500 0.500000
vt 0.375000 0.500000
vt 0.250000 0.500000
vt 0.312500 0.500000
vt 0.375000 0.500000
vt 0.375000 0.500000
vn 0.678598 0.678598 -0.281085
vn 0.678598 0.678598 -0.281085
vn 0.678598 0.678598 -0.281085
vn 0.678598 0.678598 0.281085
vn 0.678598 0.678598 0.281085
vn 0.678598 0.678598 0.281085
vn 0.281085 0.678598 0.678598
vn 0.281085 0.678598 0.678598
vn 0.281085 0.678598 0.678598
vn -0.281085 0.678598 0.678598
vn -0.281085 0.678598 0.678598
vn -0.281085 0.678598 0.678598
vn -0.678598 0.678598 0.281085
vn -0.678598 0.678598 0.281085
vn -0.678598 0.678598 0.281085
vn -0.678598 0.678598 -0.281085
vn -0.678598 0.678598 -0.281085
vn -0.678598 0.678598 -0.281085
vn -0.281085 0.678598 -0.678598
vn -0.281085 0.678598 -0.678598
vn -0.281085 0.678598 -0.678598
vn 0.281085 0.678598 -0.678598
vn 0.281085 0.678598 -0.678598
vn 0.281085 0.678598 -0.678598
vn 0.678598 -0.678598 0.281085
vn 0.678598 -0.678598 0.281085
vn 0.678598 -0.678598 0.281085
vn 0.678598 -0.678598 -0.281085
vn 0.678598 -0.678598 -0.281085
vn 0.678598 -0.678598 -0.281085
vn 0.281085 -0.678598 -0.678598
vn 0.281085 -0.678598 -0.678598
vn 0.281085 -0.678598 -0.678598
vn -0.281085 -0.678598 -0.678598
vn -0.281085 -0.678598 -0.678598
vn -0.281085 -0.678598 -0.678598
vn -0.678598 -0.678598 -0.281085
vn -0.678598 -0.678598 -0.281085
vn -0.678598 -0.678598 -0.281085
vn -0.678598 -0.678598 0.281085
vn -0.678598 -0.678598 0.281085
vn -0.678598 -0.678598 0.281085
vn -0.281085 -0.678598 0.678598
vn -0.281085 -0.678598 0.678598
vn -0.281085 -0.678598 0.678598
vn 0.281085 -0.678598 0.678598
vn 0.281085 -0.678598 0.678598
vn 0.281085 -0.678598 0.678598
usemtl initialShadingGroup
f 1/13/1 2/11/2 3/12/3
f 3/15/4 2/11/5 4/14/6
f 4/17/7 2/11/8 5/16/9
f 5/18/10 2/11/11 6/10/12
f 6/10/13 2/11/14 7/19/15
f 7/21/16 2/11/17 8/20/18
f 8/23/19 2/11/20 9/22/21
f 9/25/22 2/11/23 1/24/24
f 3/7/25 4/8/26 10/9/27
f 1/6/28 3/7/29 10/9/30
f 9/5/31 1/6/32 10/9/33
f 8/4/34 9/5/35 10/9/36
f 7/3/37 8/4/38 10/9/39
f 6/26/40 7/3/41 10/9/42
f 5/2/43 6/27/44 10/9/45
f 4/1/46 5/2/47 10/9/48
